<?xml version="1.0" standalone="no"?>
<!DOCTYPE svg PUBLIC "-//W3C//DTD SVG 20010904//EN"
 "http://www.w3.org/TR/2001/REC-SVG-20010904/DTD/svg10.dtd">
<svg version="1.0" xmlns="http://www.w3.org/2000/svg"
 width="1016.000000pt" height="1016.000000pt" viewBox="0 0 1016.000000 1016.000000"
 preserveAspectRatio="xMidYMid meet">

<g transform="translate(0.000000,1016.000000) scale(0.100000,-0.100000)"
fill="#000000" stroke="none">
<path d="M4810 10153 c-1238 -71 -2391 -579 -3277 -1447 -1328 -1299 -1843
-3203 -1347 -4986 293 -1052 920 -1986 1791 -2667 131 -102 437 -307 588 -394
164 -93 468 -239 655 -312 462 -182 939 -293 1450 -337 150 -13 671 -13 825 0
1571 133 2950 949 3824 2262 478 718 762 1544 832 2421 16 199 7 766 -15 942
-52 413 -123 729 -247 1092 -324 946 -936 1790 -1744 2403 -137 104 -413 286
-565 372 -758 431 -1654 664 -2520 656 -107 -1 -220 -3 -250 -5z m645 -1563
c826 -94 1549 -442 2130 -1024 905 -906 1244 -2217 894 -3462 -142 -506 -449
-1051 -796 -1415 l-77 -80 -93 93 c-51 51 -93 97 -93 102 0 5 29 40 65 78 345
366 625 883 754 1394 71 283 95 484 95 804 -1 441 -66 795 -221 1184 -438
1108 -1421 1877 -2605 2041 -161 23 -514 30 -689 16 -655 -56 -1261 -297
-1774 -707 -142 -113 -387 -359 -499 -499 -379 -476 -608 -1012 -691 -1615
-23 -163 -31 -516 -16 -691 50 -592 249 -1133 598 -1626 62 -89 148 -195 257
-317 l60 -67 -98 -97 -97 -97 -51 55 c-543 594 -849 1263 -940 2055 -19 167
-16 589 6 765 97 798 433 1499 990 2069 598 611 1378 975 2251 1051 121 11
516 5 640 -10z m-15 -356 c375 -43 720 -145 1061 -316 306 -152 582 -351 824
-593 1148 -1146 1253 -2951 244 -4226 -104 -132 -374 -403 -504 -505 -580
-458 -1258 -694 -1990 -694 -841 1 -1640 334 -2240 935 -522 523 -840 1197
-915 1938 -18 174 -8 596 18 762 89 573 314 1088 668 1530 113 142 348 377
489 489 472 376 1027 609 1620 680 168 20 555 20 725 0z m-2575 -5540 c534
-483 1124 -757 1831 -851 158 -20 588 -23 739 -5 561 70 1025 242 1475 546
127 86 275 202 368 291 38 36 73 65 78 65 5 0 286 -277 624 -616 l615 -615
-75 -71 c-485 -453 -1021 -793 -1610 -1023 -1179 -460 -2502 -456 -3684 11
-555 220 -1128 585 -1556 992 l-95 91 615 615 c338 339 617 616 620 616 3 -1
28 -21 55 -46z"/>
<path d="M4905 7973 c-980 -63 -1849 -607 -2345 -1466 -522 -908 -500 -2061
57 -2956 424 -681 1098 -1152 1879 -1314 223 -47 285 -52 589 -52 230 0 314 4
405 18 530 83 990 281 1393 599 130 103 371 344 473 473 320 405 518 865 601
1395 23 146 26 643 5 785 -52 344 -135 613 -282 910 -374 759 -1065 1315
-1891 1525 -277 70 -604 101 -884 83z m-587 -535 c9 -9 12 -125 12 -460 l0
-448 85 0 85 0 0 240 c0 227 1 241 20 260 11 11 25 20 30 20 6 0 19 -9 30 -20
19 -19 20 -33 20 -260 l0 -240 85 0 85 0 0 448 c0 335 3 451 12 460 17 17 65
15 72 -4 3 -9 6 -216 6 -460 l0 -444 220 0 220 0 0 441 c0 284 4 447 10 460
14 26 66 26 80 0 6 -13 10 -176 10 -460 l0 -441 85 0 85 0 2 246 c3 234 4 247
23 259 13 9 28 10 43 4 l22 -8 0 -251 0 -250 90 0 90 0 0 448 c0 472 0 472 45
472 45 0 45 0 45 -472 l0 -448 85 0 85 0 0 238 c0 176 3 242 13 254 21 26 46
29 67 8 19 -19 20 -34 20 -260 l0 -240 148 0 c103 0 153 -4 165 -12 14 -11 17
-37 19 -168 l3 -155 244 -3 c160 -1 249 -6 258 -13 17 -15 17 -53 0 -68 -9 -7
-98 -12 -258 -13 l-244 -3 0 -85 0 -85 449 -3 c311 -1 453 -6 463 -13 19 -17
16 -57 -6 -69 -13 -6 -177 -10 -465 -10 l-446 0 0 -85 0 -85 241 0 c146 0 248
-4 260 -10 23 -13 25 -53 3 -74 -13 -14 -51 -16 -260 -16 l-244 0 0 -85 0 -85
453 0 c339 0 456 -3 465 -12 16 -16 15 -53 -1 -67 -10 -7 -152 -12 -463 -13
l-449 -3 -3 -217 -2 -218 449 0 c395 0 451 -2 465 -16 20 -20 20 -48 0 -68
-14 -14 -70 -16 -465 -16 l-449 0 0 -85 0 -85 248 0 c180 0 251 -3 260 -12 16
-16 15 -53 -1 -67 -9 -7 -98 -12 -258 -13 l-244 -3 0 -85 0 -85 449 -3 c311
-1 453 -6 463 -13 16 -14 17 -51 1 -67 -9 -9 -126 -12 -465 -12 l-453 0 0 -85
0 -85 250 0 c237 0 251 -1 270 -20 11 -11 20 -24 20 -30 0 -5 -9 -19 -20 -30
-19 -19 -33 -20 -270 -20 l-250 0 -2 -162 -3 -163 -162 -3 -163 -2 0 -241 c0
-147 -4 -248 -10 -260 -13 -23 -53 -25 -74 -3 -14 13 -16 51 -16 260 l0 244
-85 0 -85 0 0 -453 c0 -339 -3 -456 -12 -465 -16 -16 -53 -15 -67 1 -7 10 -12
152 -13 463 l-3 449 -85 0 -85 0 -3 -244 c-1 -160 -6 -249 -13 -258 -14 -16
-51 -17 -67 -1 -9 9 -12 80 -12 260 l0 248 -85 0 -85 0 0 -449 c0 -395 -2
-451 -16 -465 -20 -20 -48 -20 -68 0 -14 14 -16 70 -16 465 l0 449 -217 -2
-218 -3 -3 -449 c-1 -311 -6 -453 -13 -463 -15 -17 -53 -17 -68 0 -7 10 -12
152 -13 463 l-3 449 -82 3 -83 3 0 -245 c0 -209 -2 -247 -16 -260 -21 -22 -61
-20 -74 3 -6 12 -10 114 -10 260 l0 241 -85 0 -85 0 0 -446 c0 -288 -4 -452
-10 -465 -12 -22 -52 -25 -69 -6 -7 10 -12 152 -13 463 l-3 449 -85 0 -85 0
-5 -259 c-5 -255 -5 -259 -27 -267 -15 -6 -28 -3 -43 9 -19 16 -20 29 -23 267
l-2 250 -155 3 c-131 2 -157 5 -167 19 -9 12 -13 62 -13 165 l0 148 -247 0
c-215 0 -249 2 -265 17 -24 22 -23 49 4 67 19 13 62 16 265 16 l243 0 0 85 0
85 -448 0 c-472 0 -472 0 -472 45 0 45 0 45 472 45 l448 0 0 90 0 90 -250 0
-251 0 -8 23 c-6 14 -5 29 4 42 12 19 25 20 259 23 l246 2 0 85 0 85 -441 0
c-284 0 -447 4 -460 10 -12 7 -19 21 -19 40 0 19 7 33 19 40 13 6 176 10 460
10 l441 0 0 220 0 220 -444 0 c-244 0 -451 3 -460 6 -19 7 -21 55 -4 72 9 9
125 12 460 12 l448 0 0 85 0 85 -240 0 c-226 0 -241 1 -260 20 -21 21 -18 46
8 68 12 9 78 12 254 12 l238 0 0 85 0 85 -449 0 c-489 0 -476 -2 -469 57 l3
28 458 3 457 2 0 90 0 90 -242 0 c-134 0 -248 4 -254 8 -19 13 -23 39 -8 61
15 20 22 21 260 21 l244 0 0 152 c0 127 3 154 17 170 14 16 34 18 170 18 l153
0 0 249 c0 214 2 252 16 265 18 19 45 21 62 4 9 -9 12 -82 12 -265 l0 -253 90
0 90 0 0 453 c0 250 3 457 7 460 11 11 58 8 71 -5z"/>
<path d="M3730 6175 l0 -255 123 0 122 0 178 -179 177 -180 0 -425 c0 -234 2
-426 5 -426 2 0 400 269 882 599 l878 599 3 261 2 261 -350 0 -350 0 0 -130
c0 -117 -2 -132 -20 -150 -11 -11 -24 -20 -30 -20 -5 0 -19 9 -30 20 -18 18
-20 33 -20 150 l0 130 -220 0 -220 0 0 -140 c0 -131 -1 -140 -21 -150 -16 -9
-26 -8 -45 5 -23 15 -24 19 -24 150 l0 135 -220 0 -220 0 0 -138 0 -137 169
-169 170 -169 206 118 207 119 45 -24 c171 -91 172 -102 23 -213 -58 -44 -116
-88 -130 -99 l-25 -20 35 20 c19 11 95 54 167 96 73 42 142 76 154 76 22 0
150 -72 170 -96 25 -31 -1 -59 -151 -163 -83 -58 -150 -107 -150 -109 0 -2 19
7 43 21 270 156 348 198 363 195 24 -4 38 -31 30 -59 -5 -19 -122 -91 -584
-356 -317 -182 -585 -335 -594 -338 -23 -9 -58 29 -58 64 0 26 38 55 486 371
444 313 485 344 468 357 -10 7 -25 11 -33 8 -8 -3 -217 -123 -464 -265 -247
-143 -457 -260 -467 -260 -25 0 -41 23 -42 59 -1 17 1 33 3 35 4 4 430 320
641 477 116 85 117 87 95 102 -21 14 -33 8 -227 -104 -113 -65 -211 -119 -219
-119 -8 0 -106 91 -218 202 l-203 202 0 158 0 158 -255 0 -255 0 0 -255z"/>
<path d="M6200 6175 l0 -255 120 0 120 0 0 255 0 255 -120 0 -120 0 0 -255z"/>
<path d="M3730 5610 l0 -220 135 0 c131 0 135 -1 150 -24 13 -19 14 -29 5 -45
-10 -20 -19 -21 -150 -21 l-140 0 0 -220 0 -220 130 0 c117 0 132 -2 150 -20
11 -11 20 -24 20 -30 0 -5 -9 -19 -20 -30 -18 -18 -33 -20 -150 -20 l-130 0 0
-520 0 -520 120 0 120 0 0 364 c0 326 2 366 17 381 9 9 69 52 135 96 l118 79
0 438 0 437 -158 158 -157 157 -98 0 -97 0 0 -220z"/>
<path d="M5450 5354 c-382 -261 -779 -532 -882 -602 -103 -70 -188 -130 -188
-133 0 -7 692 -409 704 -409 3 0 175 98 381 217 l375 216 0 404 c0 222 -3 403
-7 403 -5 0 -197 -106 -231 -128 -11 -7 -9 -21 9 -73 30 -86 33 -248 5 -329
-93 -276 -350 -437 -623 -390 -75 12 -190 61 -248 106 -68 51 -31 128 40 83
17 -10 64 -36 105 -56 74 -38 76 -38 195 -38 114 0 123 2 188 32 95 45 178
127 224 221 33 66 38 85 41 168 5 99 -5 157 -39 229 -35 75 -34 77 171 195
102 58 192 109 201 112 9 4 26 0 38 -8 21 -15 21 -19 21 -445 0 -236 2 -429 4
-429 2 0 67 36 144 80 l139 80 112 0 111 0 0 220 0 220 -138 0 c-142 0 -162 5
-162 41 0 42 25 49 166 49 l134 0 0 220 0 220 -147 0 -148 -1 -695 -475z"/>
<path d="M6078 4673 l-148 -86 0 -433 0 -434 255 0 255 0 0 255 0 255 -140 0
-140 0 -12 26 c-9 18 -9 30 -1 42 9 14 32 17 152 20 l141 3 0 219 0 220 -107
-1 -108 0 -147 -86z"/>
<path d="M4172 4483 l-112 -77 0 -343 0 -343 90 0 90 0 0 138 c0 142 5 162 41
162 42 0 49 -25 49 -166 l0 -134 220 0 220 0 0 148 c0 172 -10 154 122 228 49
27 88 52 88 55 0 4 -143 89 -317 190 -175 101 -332 191 -348 201 l-30 17 -113
-76z"/>
<path d="M5503 4342 c-177 -103 -319 -190 -315 -194 4 -3 48 -30 97 -58 50
-28 96 -59 103 -68 8 -11 12 -60 12 -159 l0 -143 220 0 220 0 0 405 c0 223 -3
405 -7 404 -5 0 -153 -85 -330 -187z"/>
<path d="M4972 4033 l-112 -65 0 -124 0 -124 220 0 220 0 0 128 0 127 -58 32
c-31 18 -80 46 -108 62 l-51 29 -111 -65z"/>
<path d="M2393 1938 l-422 -423 67 -56 c659 -550 1447 -912 2282 -1048 430
-70 930 -79 1349 -26 394 51 794 154 1166 299 295 116 707 340 975 530 131 93
346 262 370 291 12 15 -31 61 -406 436 -230 230 -422 419 -425 419 -3 0 -44
-30 -90 -66 -118 -93 -353 -247 -490 -321 -845 -458 -1843 -552 -2758 -261
-394 125 -817 350 -1122 596 -35 29 -66 52 -69 52 -3 0 -195 -190 -427 -422z"/>
</g>
</svg>
